<svg xmlns="http://www.w3.org/2000/svg" width="41.125" height="52.888" viewBox="0 0 41.125 52.888"><defs><style>.a{fill:#fff;}</style></defs><g transform="translate(-13.941 -2.382)"><path class="a" d="M54.715,42.877c-.341-2.249-1.961-3.921-4.561-4.718-.524-.152-1.1-.262-1.719-.383l-.524-.1a9.31,9.31,0,0,1-2.658-.823c-.671-.372-.875-2.464-.875-3.937.2-.173.414-.356.645-.566.713-.655,1.269-1.164,1.709-1.6a7.2,7.2,0,0,0,4.136-2.176h.225c1.526,0,2.679-1.992,2.679-4.6,0-2.1-.765-3.822-1.882-4.393.278-3.586-.189-9.137-5.116-11.711A10.731,10.731,0,0,0,42.831,6.68a5.545,5.545,0,0,0-.126-.828c-.739-2.951-3.2-4.089-6.9-3.145S30.475,5.851,31.208,8.75a4.938,4.938,0,0,0,.587,1.431,7.979,7.979,0,0,0-.912,1.09c-1.709,2.537-1.819,5.877-1.6,8.325-1.085.587-1.835,2.275-1.835,4.372,0,2.621,1.148,4.576,2.684,4.6h.21a1.337,1.337,0,0,0,.477.1h.739a1.311,1.311,0,0,0,.676-.2h.2a1.672,1.672,0,0,0,.367-.042c.556,1.263,1.216,1.9,3.145,3.67H14.905a.954.954,0,0,0-.959,1.048l2.16,21.263a.959.959,0,0,0,.959.865h28.1a.965.965,0,0,0,.965-.965.65.65,0,0,0-.037-.236L45.95,52.7h8.388a.687.687,0,0,0,.524-.189.7.7,0,0,0,.2-.5C55.061,51.711,55.045,45.058,54.715,42.877ZM45.8,38.642,44.65,39.926,44.519,38.6l.315-.336a7.738,7.738,0,0,0,.98.377ZM44.078,53.393H17.935L15.974,34.065H42.118ZM36.141,4.053a8.388,8.388,0,0,1,2.008-.3,2.909,2.909,0,0,1,3.193,2.417c.037.147.068.294.094.446a10.233,10.233,0,0,0-4.4,1.19,9.242,9.242,0,0,0-4.131,1.468,3.717,3.717,0,0,1-.336-.875C31.9,5.725,34.139,4.562,36.141,4.053Zm-3.57,15.69a1.426,1.426,0,0,0-.482-.351,13.73,13.73,0,0,1,.168-4.136,9.882,9.882,0,0,1,3.334-3.3,10.92,10.92,0,0,0,2.453-.367,10.338,10.338,0,0,0,2.663-1.022,9.813,9.813,0,0,1,8.283,4.687,13.729,13.729,0,0,1,.168,4.136A1.573,1.573,0,0,0,48.3,20.44a24.4,24.4,0,0,0-4.451-1.164A8.844,8.844,0,0,1,37.9,15.245a.718.718,0,0,0-.666-.372.708.708,0,0,0-.613.456,7.475,7.475,0,0,1-2.328,3.014,18.83,18.83,0,0,0-1.719,1.4Zm1.274,7.491a.7.7,0,0,0-.477-.414.66.66,0,0,0-.173-.026.524.524,0,0,0-.183.037v-5.52a13.342,13.342,0,0,1,2.1-1.835,8.734,8.734,0,0,0,2.244-2.527,10.516,10.516,0,0,0,6.207,3.7,18.338,18.338,0,0,1,4.666,1.337V26.82a.687.687,0,0,0-.356,0,.7.7,0,0,0-.488.44,5.19,5.19,0,0,1-1.326,2.181c-.43.073-.881.136-1.368.178a1.615,1.615,0,0,0-1.358-.76H40.183a1.573,1.573,0,0,0-1.609,1.573,1.536,1.536,0,0,0,1.148,1.457h-1.94c-.194-.163-.4-.346-.634-.561C34.768,29.116,34.417,28.776,33.845,27.234ZM45.8,51.291,44.844,41.8l2.532-2.784h.058l.739.147c.587.115,1.143.22,1.573.351a4.59,4.59,0,0,1,3.575,3.57c.257,1.672.315,6.4.33,8.2Z" transform="translate(0 0)"/><path class="a" d="M46.938,75.345h0a8.356,8.356,0,0,0-.561-1.84,19.291,19.291,0,0,0-1.809-3.282A32.329,32.329,0,0,0,42.644,67.6a.954.954,0,0,0-.2-.173l-.1-.1h-.419l-.152.131a.991.991,0,0,0-.22.2,30.128,30.128,0,0,0-2.878,4.157,12.246,12.246,0,0,0-1.332,3.229,4.917,4.917,0,0,0,3.276,5.814,4.671,4.671,0,0,0,1.468.231,4.907,4.907,0,0,0,3.769-1.756,4.718,4.718,0,0,0,1.1-2.38,3.862,3.862,0,0,1,.058-.488v-.241l-.026-.362A3.885,3.885,0,0,0,46.938,75.345Zm-1.368.4v.225a1.1,1.1,0,0,1-.042.367A3.292,3.292,0,0,1,44.773,78a3.392,3.392,0,0,1-2.1,1.185,3.261,3.261,0,0,1-1.6-.115,3.444,3.444,0,0,1-2.3-4.089,9.557,9.557,0,0,1,1.012-2.448A24.3,24.3,0,0,1,42.02,69.28a.809.809,0,0,1,.094-.084.121.121,0,0,1,.047.037,25.23,25.23,0,0,1,1.51,2.055,14.5,14.5,0,0,1,1.4,2.542,5.986,5.986,0,0,1,.419,1.363,3.615,3.615,0,0,0,.052.4Z" transform="translate(-11.069 -30.901)"/></g></svg>